<?xml version="1.0" encoding="UTF-8" standalone="no"?>
<svg
   version="1.0"
   width="1257.1431"
   height="932.06342"
   viewBox="0 0 1257.1431 932.06339"
   id="Layer_1"
   xml:space="preserve"
   sodipodi:docname="ETH_vector.svg"
   inkscape:version="1.2.2 (732a01da63, 2022-12-09, custom)"
   xmlns:inkscape="http://www.inkscape.org/namespaces/inkscape"
   xmlns:sodipodi="http://sodipodi.sourceforge.net/DTD/sodipodi-0.dtd"
   xmlns="http://www.w3.org/2000/svg"
   xmlns:svg="http://www.w3.org/2000/svg"
   xmlns:rdf="http://www.w3.org/1999/02/22-rdf-syntax-ns#"
   xmlns:cc="http://creativecommons.org/ns#"
   xmlns:dc="http://purl.org/dc/elements/1.1/"><metadata
     id="metadata87"><rdf:RDF><cc:Work
         rdf:about=""><dc:format>image/svg+xml</dc:format><dc:type
           rdf:resource="http://purl.org/dc/dcmitype/StillImage" /><dc:title /></cc:Work></rdf:RDF></metadata><sodipodi:namedview
     pagecolor="#ffffff"
     bordercolor="#666666"
     borderopacity="1"
     objecttolerance="10"
     gridtolerance="10"
     guidetolerance="10"
     inkscape:pageopacity="0"
     inkscape:pageshadow="2"
     inkscape:window-width="2560"
     inkscape:window-height="1367"
     id="namedview85"
     showgrid="false"
     inkscape:zoom="1.1025"
     inkscape:cx="520.63492"
     inkscape:cy="403.62812"
     inkscape:window-x="0"
     inkscape:window-y="0"
     inkscape:window-maximized="1"
     inkscape:current-layer="layer1"
     inkscape:showpageshadow="2"
     inkscape:pagecheckerboard="0"
     inkscape:deskcolor="#d1d1d1" /><defs
     id="defs166" /><g
     inkscape:groupmode="layer"
     id="layer1"
     inkscape:label="Background"
     transform="translate(127.89116,290.97501)"><rect
       style="fill:#ffffff"
       id="rect180"
       width="1257.1431"
       height="932.06342"
       x="-127.89116"
       y="-290.97501" /><polygon
       id="polygon5"
       points="91.243,76.633 103.873,19.871 42.051,19.871 39.997,29.04 78.092,29.04 74.083,47.098 35.66,47.098 33.451,56.715 73.327,56.715 68.875,76.633 0.743,76.633 17.816,0 187.687,0 181.664,27.668 199.567,27.668 206.24,0 232.636,0 215.562,76.646 188.945,76.633 195.102,47.197 177.688,47.197 170.573,76.633 143.153,76.619 155.816,19.884 132.089,19.871 119.447,76.646 "
       transform="matrix(4.3123337,0,0,4.3123337,-3.2040639,0.23843561)" /></g></svg>
