<?xml version="1.0" encoding="UTF-8" standalone="no"?>
<svg
   version="1.0"
   width="1257.1429"
   height="1102.2224"
   viewBox="0 0 1257.143 1102.2224"
   id="Layer_1"
   xml:space="preserve"
   sodipodi:docname="ETH_vector.svg"
   inkscape:version="1.3.1 (9b9bdc1480, 2023-11-25, custom)"
   xmlns:inkscape="http://www.inkscape.org/namespaces/inkscape"
   xmlns:sodipodi="http://sodipodi.sourceforge.net/DTD/sodipodi-0.dtd"
   xmlns="http://www.w3.org/2000/svg"
   xmlns:svg="http://www.w3.org/2000/svg"
   xmlns:rdf="http://www.w3.org/1999/02/22-rdf-syntax-ns#"
   xmlns:cc="http://creativecommons.org/ns#"
   xmlns:dc="http://purl.org/dc/elements/1.1/"><metadata
     id="metadata87"><rdf:RDF><cc:Work
         rdf:about=""><dc:format>image/svg+xml</dc:format><dc:type
           rdf:resource="http://purl.org/dc/dcmitype/StillImage" /><dc:title /></cc:Work></rdf:RDF></metadata><sodipodi:namedview
     pagecolor="#ffffff"
     bordercolor="#666666"
     borderopacity="1"
     objecttolerance="10"
     gridtolerance="10"
     guidetolerance="10"
     inkscape:pageopacity="0"
     inkscape:pageshadow="2"
     inkscape:window-width="2560"
     inkscape:window-height="1368"
     id="namedview85"
     showgrid="false"
     inkscape:zoom="0.55125"
     inkscape:cx="365.53288"
     inkscape:cy="605.89569"
     inkscape:window-x="0"
     inkscape:window-y="0"
     inkscape:window-maximized="1"
     inkscape:current-layer="layer1"
     inkscape:showpageshadow="2"
     inkscape:pagecheckerboard="0"
     inkscape:deskcolor="#d1d1d1" /><defs
     id="defs166" /><g
     inkscape:groupmode="layer"
     id="layer1"
     inkscape:label="Background"
     transform="translate(127.89116,290.97501)"><rect
       style="opacity:1;fill:#ffffff;stroke-width:1.08746"
       id="rect180"
       width="1257.1429"
       height="1102.2224"
       x="-127.89116"
       y="-290.97501" /><g
       id="group-R5"
       transform="matrix(9.9187975,0,0,9.9187975,-186.54355,218.19679)"><path
         id="path2"
         d="m 229.465,268.891 c -3.508,5.261 -8.762,8.761 -18.391,8.761 H 194.211 V 190.07 h 16.863 c 9.629,0 14.883,3.5 18.391,8.754 3.062,4.379 4.156,8.539 4.156,35.035 0,26.278 -1.094,30.657 -4.156,35.032 z m 26.277,-97.657 c -10.73,-10.726 -25.84,-15.328 -42.043,-15.328 h -57.801 v 155.907 h 57.801 c 16.203,0 31.313,-4.602 42.043,-15.329 18.172,-18.171 16.199,-38.101 16.199,-62.625 0,-24.523 1.973,-44.449 -16.199,-62.625"
         style="fill:#231f20;fill-opacity:1;fill-rule:nonzero;stroke:none"
         transform="matrix(0.13333333,0,0,-0.13333333,0,62.36)" /><path
         id="path3"
         d="m 445.391,155.906 v 104.231 l -35.918,-75.981 h -17.52 l -36.777,75.981 V 155.906 h -23.653 v 155.907 h 23.653 l 45.547,-97.004 44.668,97.004 h 23.64 V 155.906 h -23.64"
         style="fill:#231f20;fill-opacity:1;fill-rule:nonzero;stroke:none"
         transform="matrix(0.13333333,0,0,-0.13333333,0,62.36)" /><path
         id="path4"
         d="m 560.371,276.559 -24.308,-69.196 h 47.96 z m 40.945,-120.653 -10.73,31.317 h -61.523 l -10.735,-31.317 h -25.183 l 57.148,155.907 h 19.055 l 57.156,-155.907 h -25.188"
         style="fill:#231f20;fill-opacity:1;fill-rule:nonzero;stroke:none"
         transform="matrix(0.13333333,0,0,-0.13333333,0,62.36)" /><path
         id="path5"
         d="M 690.438,290.57 V 155.906 H 666.797 V 290.57 h -42.93 v 21.243 H 733.359 V 290.57 h -42.921"
         style="fill:#231f20;fill-opacity:1;fill-rule:nonzero;stroke:none"
         transform="matrix(0.13333333,0,0,-0.13333333,0,62.36)" /><path
         id="path6"
         d="m 849.434,155.906 v 68.098 H 786.152 V 155.906 H 762.5 v 155.907 h 23.652 v -66.571 h 63.282 v 66.571 h 23.652 V 155.906 h -23.652"
         style="fill:#231f20;fill-opacity:1;fill-rule:nonzero;stroke:none"
         transform="matrix(0.13333333,0,0,-0.13333333,0,62.36)" /></g><polygon
       id="polygon5"
       points="68.875,76.633 0.743,76.633 17.816,0 187.687,0 181.664,27.668 199.567,27.668 206.24,0 232.636,0 215.562,76.646 188.945,76.633 195.102,47.197 177.688,47.197 170.573,76.633 143.153,76.619 155.816,19.884 132.089,19.871 119.447,76.646 91.243,76.633 103.873,19.871 42.051,19.871 39.997,29.04 78.092,29.04 74.083,47.098 35.66,47.098 33.451,56.715 73.327,56.715 "
       transform="matrix(4.3123337,0,0,4.3123337,-8.2832958,-70.872697)" /></g></svg>
