<?xml version="1.0" encoding="UTF-8" standalone="no"?>
<svg
   version="1.1"
   id="Layer_1"
   x="0px"
   y="0px"
   width="100%"
   viewBox="0 0 240 240"
   enable-background="new 0 0 240 240"
   xml:space="preserve"
   sodipodi:docname="optano.svg"
   inkscape:version="1.3.1 (9b9bdc1480, 2023-11-25, custom)"
   xmlns:inkscape="http://www.inkscape.org/namespaces/inkscape"
   xmlns:sodipodi="http://sodipodi.sourceforge.net/DTD/sodipodi-0.dtd"
   xmlns="http://www.w3.org/2000/svg"
   xmlns:svg="http://www.w3.org/2000/svg"><defs
   id="defs7" /><sodipodi:namedview
   id="namedview7"
   pagecolor="#ffffff"
   bordercolor="#000000"
   borderopacity="0.25"
   inkscape:showpageshadow="2"
   inkscape:pageopacity="0.0"
   inkscape:pagecheckerboard="0"
   inkscape:deskcolor="#d1d1d1"
   inkscape:zoom="3.4825009"
   inkscape:cx="27.709971"
   inkscape:cy="151.90233"
   inkscape:window-width="2560"
   inkscape:window-height="1368"
   inkscape:window-x="0"
   inkscape:window-y="0"
   inkscape:window-maximized="1"
   inkscape:current-layer="layer1" />

<g
   inkscape:groupmode="layer"
   id="layer1"
   inkscape:label="background"
   style="display:inline;fill:#666666;fill-opacity:1"><rect
     style="fill:#666666;fill-opacity:1"
     id="rect5"
     width="265.72861"
     height="261.70847"
     x="-6.8916345"
     y="-7.0064597" /><path
     style="fill:#ffffff;fill-opacity:1;stroke-width:0.28715"
     d="M -6.8915991,123.90521 V -6.8915991 H 125.91526 258.72212 V 123.90521 254.70202 H 125.91526 -6.8915991 Z M 133.44798,219.9733 c 32.96708,-4.42022 61.49155,-24.70223 76.29321,-54.24745 5.85568,-11.68839 8.97255,-22.63295 10.37666,-36.43658 l 0.18256,-1.79469 h -4.55628 -4.55627 l -0.64746,3.83482 c -0.35609,2.10915 -1.22087,6.14719 -1.92173,8.97344 -5.46447,22.03585 -15.66719,38.99126 -30.72927,51.06754 -12.69241,10.17635 -29.09935,16.68348 -48.67192,19.30368 -4.82388,0.64578 -17.48228,0.72833 -22.11054,0.14421 C 82.097351,207.66182 61.692845,194.45662 46.242446,171.42853 32.423977,150.83275 27.23846,128.99834 31.034723,107.39409 33.487136,93.437592 39.560676,79.404663 49.122046,65.6033 c 1.252789,-1.808339 2.277797,-3.361582 2.277797,-3.451652 0,-0.129241 -4.558569,-6.147229 -5.0992,-6.731705 -0.202352,-0.218763 -3.583503,3.543088 -5.938132,6.606737 -9.917201,12.903431 -16.559272,29.833133 -18.951246,48.30404 -0.375104,2.89657 -0.25537,8.55154 0.418134,19.74821 0.58806,9.77623 2.179123,17.31257 5.63791,26.70495 1.376325,3.73743 5.975643,12.97298 8.343028,16.75304 12.609918,20.1345 32.417456,35.49306 55.038268,42.67609 7.558057,2.4 13.352615,3.51807 23.006355,4.43912 3.1731,0.30274 15.44272,-0.12236 19.59302,-0.67883 z M 113.6396,201.98984 c 0.63397,-0.13184 0.64608,-0.21208 0.64608,-4.27955 v -4.14519 l -1.07681,-0.18743 C 89.56717,189.26268 72.55773,178.84875 60.912142,161.3593 56.018877,154.01056 51.367863,143.49519 49.995263,136.67758 46.465042,119.14323 48.474575,103.67687 56.285441,88.265241 60.181555,80.577811 64.273993,74.988242 70.244418,69.199669 82.143703,57.662819 97.83791,50.418781 114.4726,48.785093 c 4.69654,-0.461243 12.77152,-0.175104 17.32923,0.614067 8.22576,1.424296 12.85501,3.199069 26.57853,10.189738 l 9.78024,4.981994 2.55322,-2.749903 2.55321,-2.749903 -1.13461,-0.978736 c -4.74976,-4.097211 -7.57602,-6.155022 -11.75917,-8.561888 -8.43819,-4.855091 -17.83062,-7.983377 -29.00214,-9.659581 -3.94997,-0.592663 -18.02429,-0.523491 -22.18198,0.109017 -14.867598,2.261811 -27.369461,7.566223 -39.124539,16.600145 -3.246021,2.494606 -10.304265,9.487064 -13.03171,12.910248 -8.953123,11.236956 -14.906954,24.896082 -17.165658,39.381019 -0.867362,5.56234 -0.945536,18.01443 -0.146659,23.36125 1.419466,9.50038 4.16849,18.71008 7.681896,25.73563 1.570555,3.14056 5.041621,8.4224 7.902186,12.02459 2.784996,3.50702 10.858674,11.44961 15.03852,14.79435 10.132925,8.10841 21.836644,14.27448 31.307924,16.49447 4.25307,0.99689 9.19622,1.28891 11.98851,0.70824 z m 19.16726,-0.29546 c 16.93925,-2.31268 33.49201,-10.65051 45.80042,-23.07025 11.76276,-11.86917 19.39122,-26.76491 22.5082,-43.9508 1.98701,-10.95556 1.84192,-18.44138 -0.58158,-30.00717 -2.79029,-13.31624 -7.82319,-24.450014 -15.21939,-33.668332 -1.17211,-1.460875 -2.22509,-2.656137 -2.33994,-2.656137 -0.11485,0 -1.66984,1.306078 -3.45552,2.9024 -2.11329,1.889185 -3.19152,3.046196 -3.08863,3.314313 0.0869,0.226556 1.0419,1.666346 2.12214,3.19954 5.91804,8.399475 10.32797,17.655881 12.54598,26.333916 1.64957,6.45399 1.99577,9.30884 2.00224,16.51112 0.006,6.69722 -0.29148,9.51045 -1.6094,15.21895 -3.40298,14.7399 -12.267,30.10209 -22.60091,39.16953 -5.57466,4.89148 -9.92611,7.77841 -16.45501,10.91693 -7.24948,3.48491 -14.95953,5.86941 -24.15121,7.46928 l -1.07682,0.18743 v 4.24638 c 0,2.33551 0.0607,4.30703 0.1348,4.38117 0.16773,0.16773 1.42863,0.0528 5.46463,-0.49827 z m -7.99655,-16.77215 c 9.06704,-0.6917 16.15534,-2.74128 24.57684,-7.10638 3.65753,-1.8958 10.8636,-6.54451 11.04674,-7.12636 0.15671,-0.49787 -3.80766,-4.88065 -4.77843,-5.28275 -1.41027,-0.58416 -3.52844,-0.23678 -5.26213,0.86298 -5.85757,3.71569 -9.15294,5.22615 -14.95845,6.85631 -5.63889,1.58337 -8.07151,1.88671 -15.11905,1.88528 -5.5323,-0.001 -6.91484,-0.093 -9.61952,-0.63909 -8.65794,-1.74822 -15.729365,-4.83459 -22.553924,-9.84382 -3.268625,-2.39917 -9.179969,-8.42742 -11.472692,-11.69959 -3.962195,-5.65482 -5.821566,-9.73164 -8.5096,-18.65799 l -1.923976,-6.38909 h -4.655715 -4.655714 l 0.410234,2.22542 c 2.057774,11.16284 6.505698,21.84527 12.385504,29.74585 2.527437,3.39606 6.780346,7.86559 9.820112,10.3203 7.076401,5.71441 16.766695,10.49415 26.338301,12.99136 4.61053,1.20288 7.24079,1.58258 14.58057,2.10481 0.31586,0.0225 2.27377,-0.0888 4.3509,-0.24724 z m 46.90537,-26.04577 c 8.29893,-11.58819 12.62388,-24.67132 12.63224,-38.21301 0.0149,-24.072937 -13.74009,-46.266117 -35.19576,-56.787243 -8.62776,-4.230761 -19.06016,-6.733365 -28.06881,-6.733365 -27.447503,0 -52.401691,17.767243 -60.763142,43.263018 -1.862632,5.67955 -3.252777,14.04587 -2.388932,14.37736 0.217651,0.0835 2.20843,0.038 4.42395,-0.10105 l 4.028223,-0.25291 1.092973,-4.30725 c 1.790187,-7.05486 3.8059,-12.279879 6.665764,-17.278617 8.191157,-14.317257 21.138855,-22.677961 39.569194,-25.550977 4.8294,-0.752832 13.31622,-0.681122 17.92697,0.151472 15.66759,2.829199 28.90718,13.138762 37.31117,29.053905 3.91413,7.412417 5.81361,14.362197 6.11743,22.382287 0.39682,10.47516 -2.74455,21.57098 -9.22395,32.58042 -0.89681,1.52381 -1.58986,2.88192 -1.54011,3.01801 0.14297,0.39106 5.47694,6.61315 5.66474,6.60793 0.0928,-0.003 0.87942,-0.99708 1.74805,-2.20998 z m 48.34149,-45.60489 c 0.20712,-1.51113 -1.32529,-11.13306 -2.53669,-15.927733 -7.63404,-30.215248 -26.48456,-53.166393 -54.85003,-66.781749 -9.69342,-4.652823 -19.03489,-7.433505 -30.00717,-8.932259 -4.98538,-0.680975 -17.02027,-0.681717 -22.38751,-0.0014 -15.833733,2.007049 -30.167038,7.018244 -42.340336,14.802988 -3.615209,2.311905 -9.393654,6.627117 -11.619517,8.677193 l -0.970501,0.893854 2.834101,2.844775 c 1.558753,1.564625 3.054158,2.914618 3.32312,2.999985 0.30885,0.09802 1.281456,-0.430823 2.639819,-1.43538 3.123637,-2.310038 9.055096,-6.130921 12.505159,-8.055481 25.566605,-14.261891 52.284595,-15.648208 79.366945,-4.118115 18.94043,8.063734 32.74468,20.040216 42.48824,36.862517 5.28857,9.130735 9.69946,21.980776 11.67636,34.016205 0.32427,1.97415 0.6599,4.00933 0.74584,4.52261 l 0.15625,0.93323 h 4.39878 4.39878 z"
     id="path8" /></g><path
   fill="#582d87"
   opacity="1"
   stroke="none"
   d="m 21.184589,113.27464 c 2.250712,-22.746861 11.385834,-44.025723 25.001706,-57.762315 1.700695,2.184555 3.402587,4.370652 5.180721,6.654679 -26.122904,35.602062 -29.982279,73.344276 -4.395668,110.660176 21.254421,30.99779 52.806293,43.8934 89.712332,36.80101 44.29072,-8.51152 67.88608,-38.06909 74.63402,-81.98564 2.80246,0 5.58316,0 8.78462,0 -0.79403,12.18162 -3.79577,23.48839 -8.68243,34.31439 -17.53021,38.8367 -57.6691,62.2171 -100.07434,58.3403 C 68.226059,216.35515 31.157413,183.31796 23.158426,141.034 21.474012,132.12988 21.775648,122.85008 21.184589,113.27464 Z"
   id="path2"
   style="display:inline" />
<path
   fill="#582d87"
   opacity="1"
   stroke="none"
   d="m 50.640457,140.17059 c 10.22427,30.98809 31.492447,48.33139 63.426853,53.48305 0,2.66742 0,5.41699 0,8.16809 C 92.889572,205.68597 55.918125,178.92796 45.845375,154.36202 28.33584,111.65877 46.746349,68.382751 80.923317,49.523441 c 33.125263,-18.278967 71.960253,-10.08123 92.087453,9.61187 -1.86911,2.008625 -3.74234,4.021656 -4.88962,5.254574 C 158.82136,59.875763 150.54128,54.751186 141.55731,51.697346 111.27832,41.404888 75.212074,55.601116 58.880421,83.148071 48.305984,100.9842 45.527832,119.75261 50.640457,140.17059 Z"
   id="path3"
   style="display:inline" />
<path
   fill="#582c87"
   opacity="1"
   stroke="none"
   d="m 123.7225,57.158722 c 18.27095,1.648098 33.54964,8.634262 45.25733,22.277801 19.98681,23.291577 20.46078,56.900347 0.9712,81.593507 -1.95622,-2.27869 -3.85099,-4.48581 -5.70169,-6.64157 13.86332,-21.81276 15.53881,-43.99664 0.15273,-65.560221 -12.86719,-18.033348 -31.41522,-25.105861 -52.98953,-21.298797 -25.650898,4.52642 -40.033275,21.144844 -45.060306,46.783178 -1.329308,0.0922 -2.772251,0.23231 -4.218289,0.28143 -1.477783,0.0502 -2.958595,0.0111 -4.456836,0.0111 1.798179,-30.207427 28.83905,-58.245841 66.045391,-57.446448 z"
   id="path4"
   style="display:inline" />
<path
   fill="#582d87"
   opacity="1"
   stroke="none"
   d="m 94.03894,25.001461 c 26.91256,-7.502899 52.25778,-4.078577 75.90691,9.482624 24.60621,14.110039 40.43176,35.372765 47.47854,62.953331 1.10726,4.333674 1.72541,8.795774 2.47881,13.213974 0.18977,1.11287 0.0284,2.28561 0.0284,3.69296 -2.97695,0 -5.75346,0 -8.78977,0 C 206.44601,78.764458 189.12294,51.838692 155.44324,37.810272 121.78334,23.790096 90.432762,30.064789 61.721119,52.045048 59.765228,50.15554 57.796215,48.253357 55.490204,46.025612 66.74012,35.948902 79.374214,29.058756 94.03894,25.001461 Z"
   id="path5"
   style="display:inline" />
<path
   fill="#582d87"
   opacity="1"
   stroke="none"
   d="m 202.51013,119.19167 c -0.71226,48.7568 -36.4577,80.11866 -75.04413,83.00862 0,-2.76569 0,-5.51743 0,-8.60556 27.97222,-4.26033 48.83585,-18.63916 59.97226,-44.96 11.25537,-26.60198 6.13803,-51.391032 -11.18371,-74.323207 2.18216,-1.931793 4.25035,-3.76268 6.70622,-5.936767 12.88977,14.596619 17.88251,31.820594 19.54936,50.816914 z"
   id="path6"
   style="display:inline" />
<path
   fill="#592d88"
   opacity="1"
   stroke="none"
   d="m 70.049118,140.84409 c 10.335197,26.89489 39.817542,40.869 67.646422,31.76553 4.2092,-1.37692 8.49201,-3.18411 12.03522,-5.76201 3.7368,-2.71875 6.07391,-2.22198 8.5311,1.1711 0.57161,0.7893 1.30909,1.45848 2.32531,2.57197 -18.50723,13.9158 -38.53447,18.25086 -60.25289,10.69667 -25.058256,-8.71585 -38.906416,-27.07567 -43.249319,-53.49293 3.150879,0 6.014698,0 9.036476,0 1.260529,4.17529 2.542946,8.42309 3.927681,13.04967 z"
   id="path7"
   inkscape:label="path7"
   style="display:inline" />
</svg>
