<?xml version="1.0" encoding="UTF-8" standalone="no"?>
<svg
   version="1.1"
   id="Layer_1"
   x="0px"
   y="0px"
   width="100%"
   viewBox="0 0 240 240"
   enable-background="new 0 0 240 240"
   xml:space="preserve"
   sodipodi:docname="optano.svg"
   inkscape:version="1.3.1 (9b9bdc1480, 2023-11-25, custom)"
   xmlns:inkscape="http://www.inkscape.org/namespaces/inkscape"
   xmlns:sodipodi="http://sodipodi.sourceforge.net/DTD/sodipodi-0.dtd"
   xmlns="http://www.w3.org/2000/svg"
   xmlns:svg="http://www.w3.org/2000/svg"><defs
   id="defs7" /><sodipodi:namedview
   id="namedview7"
   pagecolor="#ffffff"
   bordercolor="#000000"
   borderopacity="0.25"
   inkscape:showpageshadow="2"
   inkscape:pageopacity="0.0"
   inkscape:pagecheckerboard="0"
   inkscape:deskcolor="#d1d1d1"
   inkscape:zoom="3.4825009"
   inkscape:cx="27.709971"
   inkscape:cy="152.18948"
   inkscape:window-width="2560"
   inkscape:window-height="1368"
   inkscape:window-x="0"
   inkscape:window-y="0"
   inkscape:window-maximized="1"
   inkscape:current-layer="layer1" />

<g
   inkscape:groupmode="layer"
   id="layer1"
   inkscape:label="background"
   style="display:inline;fill:#666666;fill-opacity:1"><rect
     style="display:inline;fill:#ffffff;stroke-width:1.08746"
     id="rect180"
     width="1257.1429"
     height="1102.2224"
     x="-601"
     y="-399" /><path
     fill="#582d87"
     opacity="1"
     stroke="none"
     d="m 21.184589,113.27464 c 2.250712,-22.746861 11.385834,-44.025723 25.001706,-57.762315 1.700695,2.184555 3.402587,4.370652 5.180721,6.654679 -26.122904,35.602062 -29.982279,73.344276 -4.395668,110.660176 21.254421,30.99779 52.806293,43.8934 89.712332,36.80101 44.29072,-8.51152 67.88608,-38.06909 74.63402,-81.98564 2.80246,0 5.58316,0 8.78462,0 -0.79403,12.18162 -3.79577,23.48839 -8.68243,34.31439 -17.53021,38.8367 -57.6691,62.2171 -100.07434,58.3403 C 68.226059,216.35515 31.157413,183.31796 23.158426,141.034 21.474012,132.12988 21.775648,122.85008 21.184589,113.27464 Z"
     id="path2"
     style="display:inline;fill:#582d87;fill-opacity:1" /><path
     fill="#582d87"
     opacity="1"
     stroke="none"
     d="m 50.640457,140.17059 c 10.22427,30.98809 31.492447,48.33139 63.426853,53.48305 0,2.66742 0,5.41699 0,8.16809 C 92.889572,205.68597 55.918125,178.92796 45.845375,154.36202 28.33584,111.65877 46.746349,68.382751 80.923317,49.523441 c 33.125263,-18.278967 71.960253,-10.08123 92.087453,9.61187 -1.86911,2.008625 -3.74234,4.021656 -4.88962,5.254574 C 158.82136,59.875763 150.54128,54.751186 141.55731,51.697346 111.27832,41.404888 75.212074,55.601116 58.880421,83.148071 48.305984,100.9842 45.527832,119.75261 50.640457,140.17059 Z"
     id="path3"
     style="display:inline" /><path
     fill="#582c87"
     opacity="1"
     stroke="none"
     d="m 123.7225,57.158722 c 18.27095,1.648098 33.54964,8.634262 45.25733,22.277801 19.98681,23.291577 20.46078,56.900347 0.9712,81.593507 -1.95622,-2.27869 -3.85099,-4.48581 -5.70169,-6.64157 13.86332,-21.81276 15.53881,-43.99664 0.15273,-65.560221 -12.86719,-18.033348 -31.41522,-25.105861 -52.98953,-21.298797 -25.650898,4.52642 -40.033275,21.144844 -45.060306,46.783178 -1.329308,0.0922 -2.772251,0.23231 -4.218289,0.28143 -1.477783,0.0502 -2.958595,0.0111 -4.456836,0.0111 1.798179,-30.207427 28.83905,-58.245841 66.045391,-57.446448 z"
     id="path4"
     style="display:inline" /><path
     fill="#582d87"
     opacity="1"
     stroke="none"
     d="m 94.03894,25.001461 c 26.91256,-7.502899 52.25778,-4.078577 75.90691,9.482624 24.60621,14.110039 40.43176,35.372765 47.47854,62.953331 1.10726,4.333674 1.72541,8.795774 2.47881,13.213974 0.18977,1.11287 0.0284,2.28561 0.0284,3.69296 -2.97695,0 -5.75346,0 -8.78977,0 C 206.44601,78.764458 189.12294,51.838692 155.44324,37.810272 121.78334,23.790096 90.432762,30.064789 61.721119,52.045048 59.765228,50.15554 57.796215,48.253357 55.490204,46.025612 66.74012,35.948902 79.374214,29.058756 94.03894,25.001461 Z"
     id="path5"
     style="display:inline" /><path
     fill="#582d87"
     opacity="1"
     stroke="none"
     d="m 202.51013,119.19167 c -0.71226,48.7568 -36.4577,80.11866 -75.04413,83.00862 0,-2.76569 0,-5.51743 0,-8.60556 27.97222,-4.26033 48.83585,-18.63916 59.97226,-44.96 11.25537,-26.60198 6.13803,-51.391032 -11.18371,-74.323207 2.18216,-1.931793 4.25035,-3.76268 6.70622,-5.936767 12.88977,14.596619 17.88251,31.820594 19.54936,50.816914 z"
     id="path6"
     style="display:inline" /><path
     fill="#592d88"
     opacity="1"
     stroke="none"
     d="m 70.049118,140.84409 c 10.335197,26.89489 39.817542,40.869 67.646422,31.76553 4.2092,-1.37692 8.49201,-3.18411 12.03522,-5.76201 3.7368,-2.71875 6.07391,-2.22198 8.5311,1.1711 0.57161,0.7893 1.30909,1.45848 2.32531,2.57197 -18.50723,13.9158 -38.53447,18.25086 -60.25289,10.69667 -25.058256,-8.71585 -38.906416,-27.07567 -43.249319,-53.49293 3.150879,0 6.014698,0 9.036476,0 1.260529,4.17529 2.542946,8.42309 3.927681,13.04967 z"
     id="path7"
     inkscape:label="path7"
     style="display:inline" /></g>





</svg>
