<?xml version="1.0" encoding="UTF-8" standalone="no"?>
<svg
   version="1.1"
   id="Layer_1"
   x="0px"
   y="0px"
   width="100%"
   viewBox="0 0 240 240"
   enable-background="new 0 0 240 240"
   xml:space="preserve"
   sodipodi:docname="optano.svg"
   inkscape:version="1.3.1 (9b9bdc1480, 2023-11-25, custom)"
   xmlns:inkscape="http://www.inkscape.org/namespaces/inkscape"
   xmlns:sodipodi="http://sodipodi.sourceforge.net/DTD/sodipodi-0.dtd"
   xmlns="http://www.w3.org/2000/svg"
   xmlns:svg="http://www.w3.org/2000/svg"><defs
   id="defs7" /><sodipodi:namedview
   id="namedview7"
   pagecolor="#ffffff"
   bordercolor="#000000"
   borderopacity="0.25"
   inkscape:showpageshadow="2"
   inkscape:pageopacity="0.0"
   inkscape:pagecheckerboard="0"
   inkscape:deskcolor="#d1d1d1"
   inkscape:zoom="6.9650018"
   inkscape:cx="150.61016"
   inkscape:cy="158.65035"
   inkscape:window-width="2560"
   inkscape:window-height="1368"
   inkscape:window-x="0"
   inkscape:window-y="0"
   inkscape:window-maximized="1"
   inkscape:current-layer="Layer_1" />

<path
   fill="#582D87"
   opacity="1.000000"
   stroke="none"
   d=" M21.184589,113.274643   C23.435301,90.527779 32.570423,69.248917 46.186295,55.512325   C47.886990,57.696880 49.588882,59.882977 51.367016,62.167004   C25.244112,97.769066 21.384737,135.511276 46.971348,172.827179   C68.225769,203.824966 99.777641,216.720581 136.683685,209.628189   C180.974396,201.116669 204.569763,171.559097 211.317703,127.642548   C214.120163,127.642548 216.900864,127.642548 220.102325,127.642548   C219.308289,139.824173 216.306549,151.130936 211.419891,161.956940   C193.889679,200.793640 153.750793,224.174042 111.345551,220.297241   C68.226059,216.355148 31.157413,183.317963 23.158426,141.033997   C21.474012,132.129883 21.775648,122.850082 21.184589,113.274643  z"
   id="path2" />
<path
   fill="#582D87"
   opacity="1.000000"
   stroke="none"
   d=" M50.640457,140.170593   C60.864727,171.158676 82.132904,188.501984 114.067307,193.653641   C114.067307,196.321060 114.067307,199.070633 114.067307,201.821732   C92.889572,205.685974 55.918125,178.927963 45.845375,154.362015   C28.335840,111.658768 46.746349,68.382751 80.923317,49.523441   C114.048584,31.244474 152.883575,39.442211 173.010773,59.135311   C171.141663,61.143936 169.268433,63.156967 168.121155,64.389885   C158.821365,59.875763 150.541275,54.751186 141.557312,51.697346   C111.278320,41.404888 75.212074,55.601116 58.880421,83.148071   C48.305984,100.984200 45.527832,119.752609 50.640457,140.170593  z"
   id="path3" />
<path
   fill="#582C87"
   opacity="1.000000"
   stroke="none"
   d=" M123.722504,57.158722   C141.993454,58.806820 157.272141,65.792984 168.979828,79.436523   C188.966644,102.728096 189.440613,136.336868 169.951035,161.030029   C167.994812,158.751343 166.100037,156.544220 164.249344,154.388458   C178.112656,132.575699 179.788147,110.391823 164.402069,88.828239   C151.534882,70.794891 132.986847,63.722378 111.412537,67.529442   C85.761642,72.055862 71.379265,88.674286 66.352234,114.312622   C65.022926,114.404823 63.579983,114.544930 62.133945,114.594055   C60.656162,114.644249 59.175350,114.605171 57.677109,114.605171   C59.475288,84.397743 86.516159,56.359329 123.722504,57.158722  z"
   id="path4" />
<path
   fill="#582D87"
   opacity="1.000000"
   stroke="none"
   d=" M94.038940,25.001461   C120.951500,17.498562 146.296722,20.922884 169.945847,34.484085   C194.552063,48.594124 210.377609,69.856850 217.424393,97.437416   C218.531647,101.771088 219.149796,106.233185 219.903198,110.651390   C220.092972,111.764259 219.931625,112.936996 219.931625,114.344353   C216.954666,114.344353 214.178162,114.344353 211.141846,114.344353   C206.446014,78.764458 189.122940,51.838692 155.443237,37.810272   C121.783340,23.790096 90.432762,30.064789 61.721119,52.045048   C59.765228,50.155540 57.796215,48.253357 55.490204,46.025612   C66.740120,35.948902 79.374214,29.058756 94.038940,25.001461  z"
   id="path5" />
<path
   fill="#582D87"
   opacity="1.000000"
   stroke="none"
   d=" M202.510132,119.191673   C201.797867,167.948471 166.052429,199.310333 127.466003,202.200287   C127.466003,199.434601 127.466003,196.682861 127.466003,193.594727   C155.438217,189.334396 176.301849,174.955566 187.438263,148.634735   C198.693634,122.032745 193.576294,97.243698 176.254547,74.311523   C178.436707,72.379730 180.504898,70.548843 182.960770,68.374756   C195.850540,82.971375 200.843277,100.195351 202.510132,119.191673  z"
   id="path6" />
<path
   fill="#592D88"
   opacity="1.000000"
   stroke="none"
   d=" M70.049118,140.844086   C80.384315,167.738983 109.866661,181.713089 137.695541,172.609619   C141.904739,171.232697 146.187546,169.425507 149.730759,166.847610   C153.467560,164.128860 155.804672,164.625626 158.261856,168.018707   C158.833466,168.808014 159.570953,169.477188 160.587173,170.590683   C142.079941,184.506485 122.052696,188.841537 100.334282,181.287354   C75.276024,172.571503 61.427864,154.211685 57.084961,127.794418   C60.235840,127.794418 63.099659,127.794418 66.121437,127.794418   C67.381966,131.969711 68.664383,136.217514 70.049118,140.844086  z"
   id="path7" />
</svg>
