<?xml version="1.0" encoding="UTF-8" standalone="no"?>
<!-- Created with Inkscape (http://www.inkscape.org/) -->

<svg
   version="1.0"
   width="350.70001"
   height="295.40018"
   id="svg2708"
   sodipodi:docname="TU-Berlin-Logo.svg"
   inkscape:version="1.2.2 (732a01da63, 2022-12-09, custom)"
   xmlns:inkscape="http://www.inkscape.org/namespaces/inkscape"
   xmlns:sodipodi="http://sodipodi.sourceforge.net/DTD/sodipodi-0.dtd"
   xmlns="http://www.w3.org/2000/svg"
   xmlns:svg="http://www.w3.org/2000/svg">
  <sodipodi:namedview
     id="namedview234"
     pagecolor="#ffffff"
     bordercolor="#000000"
     borderopacity="0.25"
     inkscape:showpageshadow="2"
     inkscape:pageopacity="0.0"
     inkscape:pagecheckerboard="0"
     inkscape:deskcolor="#d1d1d1"
     showgrid="false"
     inkscape:zoom="2"
     inkscape:cx="205.5"
     inkscape:cy="224.5"
     inkscape:window-width="2560"
     inkscape:window-height="1367"
     inkscape:window-x="0"
     inkscape:window-y="0"
     inkscape:window-maximized="1"
     inkscape:current-layer="layer2" />
  <defs
     id="defs2710" />
  <g
     inkscape:groupmode="layer"
     id="layer2"
     inkscape:label="Background"
     transform="translate(19.599976,46.899994)">
    <rect
       style="display:inline;fill:#ffffff"
       id="rect237"
       width="350.70001"
       height="295.40018"
       x="-19.599976"
       y="-46.899994" />
    <g
       transform="matrix(4.1709365,0,0,4.1709365,-1741.7637,-1612.3282)"
       id="g3560"
       style="fill:#990000;fill-opacity:1;stroke:none">
      <path
         d="m 485.52912,407.74812 0.19875,-2.06375 h -3.3375 c -0.9325,0 -1.31625,-0.445 -1.26375,-0.97625 0.015,-0.16 0.0225,-0.245 0.045,-0.33 l -2.57375,-0.01 c -0.0738,0.775 0.3325,1.26375 1.18375,1.4225 l -10e-4,0.0213 h -1.13 l -0.16375,1.93625 z m 0.56875,-5.91 h -9.695 l -0.19875,2.0475 h 9.69625 z m -7.31,-2.7625 h -2.21125 l -0.21125,2.0625 h 2.21375 z m 7.5775,0 h -6.9775 l -0.20875,2.0625 h 6.97625 z m -11.59875,21.4725 h 5.95875 c 2.27875,0 3.77375,-1.30125 3.9425,-3.1375 0.14625,-1.57875 -1.04125,-3.01625 -3.44,-3.01625 -1.7875,0 -3.69125,1.13875 -3.83875,2.72 -0.055,0.59625 0.0913,0.8825 0.32,1.29125 h -2.76875 z m 7.28625,-11.84875 c 0.645,0.43375 1.04375,1.36 0.9875,1.95625 -0.0188,0.2 -0.07,0.465 -0.17625,0.62 l -2.42125,-2.96125 c -1.39125,0.47375 -2.36375,1.48125 -2.485,2.79625 -0.1525,1.635 1.1375,2.98375 3.52375,2.98375 1.92125,0 3.62375,-1.27 3.79125,-3.06125 0.1,-1.08375 -0.09,-1.605 -0.63375,-2.5 z m -2.6,-10.52 h 6.9875 l 0.21625,-2.09875 h -4.12125 c -0.32125,0 -0.84875,-0.10125 -0.84875,-0.53 0,-0.43375 0.4425,-0.55 0.7225,-0.55 h 4.3475 l 0.2,-2.08375 h -4.61375 c -1.34625,0 -2.5925,0.5125 -2.6925,1.605 -0.0475,0.53 0.2625,1.17125 0.93,1.6025 l -0.004,0.0425 h -0.92 z m -7.32125,-6.80375 h 16.19125 l -3,31.1475 c -0.37875,9.05625 -7.8425,16.2825 -16.99375,16.2825 l -0.76625,-0.005 z m 8.79,27.03 c -0.585,0 -1.06125,-0.34125 -1.0125,-0.86125 0.0463,-0.5075 0.585,-0.85125 1.1725,-0.85125 0.58625,0 1.06125,0.34375 1.01375,0.85125 -0.0475,0.52 -0.585,0.86125 -1.17375,0.86125 z m 0.70625,-6.4675 c -0.12375,0.045 -0.2075,0.09 -0.50125,0.09 -0.6,0 -1.165,-0.365 -1.11625,-0.895 0.0263,-0.2775 0.1125,-0.49875 0.41,-0.675 l 1.2075,1.48"
         id="path2702"
         style="fill:#990000;fill-opacity:1;fill-rule:nonzero;stroke:none;stroke-opacity:1" />
      <path
         d="m 469.84412,395.87937 -4.11125,42.76375 c -9.15,-1.6 -15.31375,-6.34375 -14.48625,-15.21 l -0.005,-0.0187 1.965,-20.42125 h -26.51125 c -4.36875,-0.0325 -7.90125,-3.585 -7.90125,-7.9625 0,-4.37625 3.5325,-7.92875 7.90125,-7.965 h 35.25 c 4.39,0.0125 7.94375,3.5725 7.94375,7.965 0,0.28625 -0.0163,0.57 -0.045,0.84875"
         id="path2704"
         style="fill:#990000;fill-opacity:1;fill-rule:nonzero;stroke:none;stroke-opacity:1" />
      <path
         d="m 435.00162,404.75687 h 14.54375 l -2.86875,29.7825 h -14.54375 l 2.86875,-29.7825"
         id="path2706"
         style="fill:#990000;fill-opacity:1;fill-rule:nonzero;stroke:none;stroke-opacity:1" />
    </g>
  </g>
</svg>
